# xmcd
# 
# Track frame offsets:
#     150
#     21475
#     54173
#     78459
#     103955
#     137442
#     176524
#     199993
# 
# Disc length: 3229
# 
# Revision: 1
# Processed by: cddbd v1.5.2PL0 Copyright (c) Steve Scherf et al.
# Submitted via: BonkEnc v1.0.8
# 
DISCID=690c9b08
DTITLE=Mike Westbrook - Chanson Irrisponsable
DYEAR=2002
DGENRE=Big Band
TTITLE0=The Reed Bed, The Oak Tree And The Stream
TTITLE1=Stolzierender Protz
TTITLE2=Fight
TTITLE3=Unbekummerte Liebe
TTITLE4=Chattering Billy
TTITLE5=Tu Cranes
TTITLE6=Amore Spensiretp
TTITLE7=Insoucient Armour
EXTD=YEAR: 2003
EXTT0=
EXTT1=
EXTT2=
EXTT3=
EXTT4=
EXTT5=
EXTT6=
EXTT7=
PLAYORDER=
